<?xml version="1.0" standalone="no"?>
<!DOCTYPE svg PUBLIC "-//W3C//DTD SVG 20010904//EN"
 "http://www.w3.org/TR/2001/REC-SVG-20010904/DTD/svg10.dtd">
<svg version="1.0" xmlns="http://www.w3.org/2000/svg"
 width="512.000000pt" height="512.000000pt" viewBox="0 0 512.000000 512.000000"
 preserveAspectRatio="xMidYMid meet">

<g transform="translate(0.000000,512.000000) scale(0.100000,-0.100000)"
fill="#000000" stroke="none">
<path d="M2080 4789 c-113 -23 -223 -107 -273 -209 -35 -71 -47 -140 -47 -262
0 -97 1 -100 29 -129 36 -35 61 -37 98 -5 28 24 28 26 33 158 5 128 6 137 35
184 19 30 49 60 79 79 l49 30 477 0 477 0 49 -30 c30 -19 60 -49 79 -79 29
-47 30 -56 35 -184 5 -132 5 -134 33 -158 37 -32 62 -30 99 7 l31 30 -5 132
c-6 149 -21 203 -82 285 -40 55 -117 112 -186 139 -40 16 -93 18 -505 19 -253
1 -480 -2 -505 -7z"/>
<path d="M480 3989 c-154 -30 -281 -161 -310 -320 -7 -37 -9 -556 -8 -1545 3
-1486 3 -1489 24 -1540 46 -112 126 -192 237 -238 52 -21 56 -21 1070 -24
l1017 -3 25 25 25 25 0 546 0 546 23 8 c53 21 55 15 154 -455 51 -242 98 -486
105 -543 18 -158 -9 -145 337 -149 l291 -3 25 25 25 25 0 990 0 991 38 19 39
20 81 -55 82 -54 0 -865 c0 -621 3 -871 11 -889 7 -13 25 -30 40 -37 37 -15
82 2 98 37 8 18 11 268 11 888 l0 863 83 55 83 55 37 -18 37 -19 0 -991 0
-990 26 -25 25 -26 217 4 c241 5 266 10 360 75 62 42 124 123 149 196 17 49
18 134 18 1567 0 1433 -1 1518 -18 1567 -38 108 -134 205 -247 250 -43 17
-157 18 -2105 19 -1153 1 -2080 -2 -2105 -7z m4206 -184 c30 -19 60 -49 79
-79 l30 -49 0 -1517 0 -1517 -30 -49 c-19 -30 -49 -60 -79 -79 -49 -30 -51
-30 -208 -33 l-158 -3 0 968 0 968 -205 535 c-114 294 -213 541 -222 548 -9 6
-33 12 -53 12 -20 0 -44 -6 -53 -12 -9 -7 -109 -253 -222 -547 l-205 -534 0
-968 0 -969 -179 0 -179 0 -6 27 c-3 16 -8 51 -12 78 -8 66 -170 845 -189 910
-33 115 -163 176 -270 126 -53 -24 -83 -55 -106 -105 -17 -38 -19 -75 -19
-539 l0 -497 -958 2 -959 3 -49 30 c-30 19 -60 49 -79 79 l-30 49 -3 1496 c-2
1012 0 1508 7 1532 18 59 64 114 122 143 l53 26 2066 -2 2067 -3 49 -30z
m-718 -913 c67 -176 122 -322 122 -325 0 -4 -6 -7 -14 -7 -8 0 -62 -31 -120
-70 -59 -38 -111 -70 -116 -70 -5 0 -57 32 -116 70 -58 39 -112 70 -120 70 -8
0 -14 3 -14 7 0 12 245 643 250 643 3 0 60 -143 128 -318z"/>
<path d="M2745 3500 c-11 -4 -144 -133 -295 -286 -286 -290 -311 -322 -375
-471 -86 -200 -87 -447 -4 -663 70 -183 249 -380 344 -380 41 0 75 36 75 78 0
34 -10 46 -77 93 -55 37 -125 126 -169 213 -51 99 -75 201 -75 324 0 155 35
275 118 399 38 59 248 283 264 283 5 0 9 -23 9 -51 0 -64 40 -185 84 -252 18
-29 59 -81 91 -117 190 -217 194 -519 11 -740 -56 -67 -63 -116 -20 -149 44
-35 72 -27 129 33 66 70 110 146 148 253 30 83 32 97 31 228 0 127 -2 147 -27
220 -36 103 -90 192 -168 280 -70 78 -105 146 -120 233 -19 105 18 230 94 320
52 62 50 119 -4 147 -31 17 -36 17 -64 5z"/>
<path d="M830 942 c-38 -39 -40 -83 -5 -117 51 -52 135 -15 135 58 0 44 -26
75 -67 83 -27 5 -37 1 -63 -24z"/>
<path d="M1150 942 c-38 -39 -40 -83 -5 -117 51 -52 135 -15 135 58 0 44 -26
75 -67 83 -27 5 -37 1 -63 -24z"/>
<path d="M1470 942 c-38 -39 -40 -83 -5 -117 51 -52 135 -15 135 58 0 44 -26
75 -67 83 -27 5 -37 1 -63 -24z"/>
</g>
</svg>
