<svg width="512" height="512" xmlns="http://www.w3.org/2000/svg">

 <g>
  <title>background</title>
  <rect fill="none" id="canvas_background" height="402" width="582" y="-1" x="-1"/>
 </g>
 <g>
  <title>Layer 1</title>
  <g id="svg_1">
   <g id="svg_2">
    <path fill="#ffffff" id="svg_3" d="m467,76l-422,0c-24.863,0 -45,20.262 -45,45l0,270c0,24.885 20.285,45 45,45l422,0c24.655,0 45,-20.03 45,-45l0,-270c0,-24.694 -20.057,-45 -45,-45zm-6.302,30c-9.194,9.145 -167.415,166.533 -172.878,171.967c-8.5,8.5 -19.8,13.18 -31.82,13.18s-23.32,-4.681 -31.848,-13.208c-3.674,-3.655 -160.149,-159.305 -172.85,-171.939l409.396,0zm-430.698,278.894l0,-257.769l129.638,128.955l-129.638,128.814zm21.321,21.106l129.587,-128.763l22.059,21.943c14.166,14.166 33,21.967 53.033,21.967c20.033,0 38.867,-7.801 53.005,-21.939l22.087,-21.971l129.587,128.763l-409.358,0zm430.679,-21.106l-129.638,-128.814l129.638,-128.955l0,257.769z"/>
   </g>
  </g>
  <g id="svg_4"/>
  <g id="svg_5"/>
  <g id="svg_6"/>
  <g id="svg_7"/>
  <g id="svg_8"/>
  <g id="svg_9"/>
  <g id="svg_10"/>
  <g id="svg_11"/>
  <g id="svg_12"/>
  <g id="svg_13"/>
  <g id="svg_14"/>
  <g id="svg_15"/>
  <g id="svg_16"/>
  <g id="svg_17"/>
  <g id="svg_18"/>
 </g>
</svg>