<svg width="32" height="32" xmlns="http://www.w3.org/2000/svg">

 <g>
  <title>background</title>
  <rect fill="none" id="canvas_background" height="602" width="802" y="-1" x="-1"/>
 </g>
 <g>
  <title>Layer 1</title>
  <path fill="#ffffff" stroke="null" id="svg_1" d="m26.07031,3.99609c-0.33593,0.01563 -0.65234,0.11329 -0.93359,0.22266l-0.00391,0c-0.28515,0.11328 -1.64062,0.68359 -3.69922,1.54688c-2.05859,0.86718 -4.73046,1.99218 -7.38281,3.10937c-5.29687,2.23047 -10.5039,4.42578 -10.5039,4.42578l0.0625,-0.02344c0,0 -0.35938,0.11719 -0.73438,0.375c-0.19141,0.125 -0.40234,0.29688 -0.58594,0.56641c-0.18359,0.26953 -0.33203,0.68359 -0.27734,1.10938c0.08984,0.72265 0.55859,1.15625 0.89453,1.39453c0.33984,0.24218 0.66406,0.35547 0.66406,0.35547l0.00782,0l4.88281,1.64453c0.21875,0.70312 1.48828,4.875 1.79297,5.83593c0.17968,0.57422 0.35547,0.9336 0.57422,1.20704c0.10546,0.14062 0.23046,0.25781 0.3789,0.35156c0.0586,0.03515 0.1211,0.0625 0.1836,0.08594c0.01953,0.01171 0.03906,0.01562 0.0625,0.01953l-0.05079,-0.01172c0.01563,0.0039 0.02735,0.01562 0.03907,0.01953c0.03906,0.01172 0.0664,0.01562 0.11718,0.02344c0.77344,0.23437 1.39454,-0.2461 1.39454,-0.2461l0.03515,-0.02734l2.88281,-2.625l4.83204,3.70703l0.10937,0.04688c1.00781,0.4414 2.02734,0.19531 2.56641,-0.23829c0.54297,-0.4375 0.7539,-0.99609 0.7539,-0.99609l0.03516,-0.08984l3.73437,-19.12891c0.10547,-0.47266 0.13282,-0.91406 0.01563,-1.34375c-0.11719,-0.42969 -0.41797,-0.83203 -0.78125,-1.04687c-0.36719,-0.21875 -0.73047,-0.28516 -1.06641,-0.26954zm-0.10156,2.05079c-0.00391,0.0625 0.00781,0.05468 -0.01953,0.17578l0,0.01172l-3.69922,18.92968c-0.01562,0.02735 -0.04297,0.08594 -0.11719,0.14453c-0.07812,0.0625 -0.14062,0.10157 -0.46484,-0.02734l-5.91016,-4.53125l-3.57031,3.25391l0.75,-4.78907c0,0 9.25781,-8.6289 9.65625,-9c0.39844,-0.37109 0.26563,-0.44921 0.26563,-0.44921c0.02734,-0.45313 -0.60157,-0.13282 -0.60157,-0.13282l-12.17578,7.54297l-0.0039,-0.01953l-5.83594,-1.96484l0,-0.00391c-0.00391,0 -0.01172,-0.00391 -0.01563,-0.00391c0.00391,0 0.03125,-0.01171 0.03125,-0.01171l0.03125,-0.01563l0.03125,-0.01172c0,0 5.21094,-2.19531 10.50782,-4.42578c2.65234,-1.11719 5.32421,-2.24219 7.3789,-3.10937c2.05469,-0.86329 3.57422,-1.4961 3.66016,-1.53125c0.08203,-0.03125 0.04297,-0.03125 0.10156,-0.03125z"/>
 </g>
</svg>